<svg xmlns="http://www.w3.org/2000/svg" viewBox="0 0 172.28 109.82"><path d="M97.07,107.52c-12.38,12.8-27.37,18.71-45.27,17.79v-29c3.08-.17,6.18-.1,9.21-.53a25.57,25.57,0,0,0-2.2-50.89c-7.69-.33-15.41-.06-23.39-.06V79H6.15V16h8.3c13.39,0,26.77.11,40.15,0,16.12-.14,29.84,5.33,41.2,16.64.21.21.42.43.65.62a1.35,1.35,0,0,0,.41.16C121.15,7,160.12,12,178.43,34.91L156.92,54.76a24.1,24.1,0,0,0-20.56-9.87,23.65,23.65,0,0,0-17,7.8,26,26,0,0,0,1.38,36.79c9.72,9,26.3,9.44,36.68-4,.34.3.7.56,1,.88l19.82,20.08c-10.89,12-24.25,18.55-40.46,18.74S108.14,119.1,97.07,107.52Z" transform="translate(-6.15 -15.58)" style="fill:#e30613"/></svg>