<svg xmlns="http://www.w3.org/2000/svg" viewBox="0 0 18.62 18.03" fill="#FD5B49">
<g id="Capa_2" data-name="Capa 2"><g id="Capa_1-2" data-name="Capa 1">
<path d="M15.72,3.16l1.11,1.56c-1.06,1-2,2-3.13,2.89-1.26,1.06-1.36,1.64-.12,2.76s2.57,2.2,3.9,3.32L16.66,15c-2.23-1.93-5.19-3.25-5-6.78C11.82,5.73,13.75,4.43,15.72,3.16Z"/>
<path d="M14.76,16.74l-1.68.8c-.85-1.36-1.74-2.69-2.53-4.07-.57-1-1.21-1.18-2.09-.42l-4,3.53-.66-.7c1.25-1.38,2.41-2.74,3.65-4,1.43-1.5,2.75-1.49,4.06.17C12.69,13.46,13.62,15.05,14.76,16.74Z"/>
<path d="M1.63,13.93a6.49,6.49,0,0,1,.85-1.56c.86-.89,1.87-1.64,2.76-2.5,1.2-1.18,1.15-1.62-.15-2.63L1.43,4.39l.71-1.16a48.32,48.32,0,0,1,4.2,3.05c2.23,2,1.87,4.05-.76,5.47C4.34,12.42,3.18,13.24,2,14Z"/>
<path d="M13.89,1c.14.69.36,1.09.24,1.29A18.71,18.71,0,0,1,11.59,6c-1.16,1.12-3,.79-4.48-.57C6,4.34,5,3.13,3.9,2c.55-.79,1-.89,1.56-.2A23.49,23.49,0,0,0,7.8,4.13c1.76,1.5,3.34,1.24,4.61-.68C12.86,2.77,13.25,2.06,13.89,1Z"/>
<path d="M6,8.64.86,12.45A5.08,5.08,0,0,1,1,11.23c.11-.23.41-.36.6-.56,1.68-1.83,1.7-1.86-.25-3.48-.59-.5-1.12-.86-.23-1.72Z"/>
<path d="M16.35,8.38c-.75,1.22.39,1.68,1,2.08.92.59,1,1.17.43,2.23L13.31,9.25l3.87-3.49c1.11,1.51-.53,1.85-.87,2.67Z"/>
<path d="M5.92.63a1.46,1.46,0,0,1,2.21.42c1.52,2,1.68,2,3.52.12a7.61,7.61,0,0,1,.83-.64l.34.31C12.11,2,11.45,3.15,10.68,4.25c-.44.64-1,.68-1.57,0C8.11,3.05,7.05,1.9,5.92.63Z"/>
<path d="M7.84,16.28,6.22,17.71l-.46-.42,3.59-4.71,2.57,5.11-.4.31c-.3-.3-.63-.58-.9-.91s-.68-1-1.08-1.43-.84-.55-1.09.19Z"/>
<path d="M7.84,16.28l.61-.43c1.45,0,1.39,1.09,1.68,2.18H7.35Z"/>
<path d="M.47,7.3c.5.53,1.3,1,1.39,1.61S1.16,10,.76,10.55l-.47-.22L0,7.68Z"/>
<path d="M16.31,8.43l2-.89.33,2.63c-1.21-.42-2.14-.6-2.26-1.79Z"/>
<path d="M11.22.46c-.47.42-1,1.21-1.41,1.17S8.9.81,8.45.35L8.63,0H11Z"/></g></g></svg>