<svg xmlns="http://www.w3.org/2000/svg" viewBox="0 0 16.14 15.81"><g id="Capa_2" data-name="Capa 2"><g id="Capa_1-2" data-name="Capa 1"><path d="M12.48,3.05H.72L1,7C3.5,7,6,7,8.53,7c2.17,0,4.34,0,6.5-.11.85,0,1.15.25,1.11,1.11-.07,1.33,0,2.68-.06,4,0,.36-.48,1-.75,1-4,.06-8.09,0-12.12,0-.27-1.24.43-1.19,1.09-1.19,3.05,0,6.09,0,9.13-.06.59,0,1.17-.08,1.86-.13L14.87,8H13.35c-4.06,0-8.12,0-12.18,0C.32,8.05-.09,7.89,0,6.89a27,27,0,0,0,0-3.6c0-.73.17-1.1,1-1.09,3.55,0,7.1,0,10.65,0a2.76,2.76,0,0,1,.92.33Z"/><path d="M1.25,10.45.86,14.54h13c0,.85-.23,1.27-1.17,1.26-3.88,0-7.75,0-11.63,0-.83,0-1-.33-1-1.06,0-1.52,0-3.05,0-4.57,0-.8.36-1.07,1.09-1l11.59.54.08.43a6.7,6.7,0,0,1-1.32.26c-3.18,0-6.36,0-9.54,0C1.72,10.41,1.5,10.44,1.25,10.45Z"/><path d="M3.07,5.14c3.81-.4,7.65-.56,11.6-.79v-3c-1.18,0-2.4,0-3.62,0-2.58,0-5.16,0-7.74.06-1,0-1.19-.41-.89-1.37h3c2.8,0,5.61.06,8.42,0,1.3,0,2,.23,1.9,1.73A14.35,14.35,0,0,0,16,4.06c.07.94-.15,1.51-1.34,1.51-3.41,0-6.81.16-10.22.24-.44,0-.89,0-1.34,0Z"/></g></g></svg>