<svg xmlns="http://www.w3.org/2000/svg" viewBox="0 0 15.09 15.71"><g id="Capa_2" data-name="Capa 2"><g id="Capa_1-2" data-name="Capa 1"><path d="M10.88.13l-.4,6.43,3.06-.28c0-1.75,0-3.4,0-5,0-1.37.18-1.46,1.55-1l-.61,7.18H.24c0-1.17,0-2.45,0-3.73C.21,3,0,2.18,0,1.41,0,1,.27.27.55.19c.81-.22.8.47.8,1V6.49H4.09C4,4.77,3.94,3,3.84,1.32c0-.9.24-1.33,1.33-1l.41,6.16h3.6L8.9.52Z"/><path d="M13.78,9.64l-3.29.3c0,1.43,0,2.89,0,4.34,0,.92-.28,1.31-1.43,1l.25-5.33H5.23c0,1.58,0,3.17,0,4.77,0,1-.42,1.19-1.43.83L4.06,10H1.37V15.3l-.43.22c-.23-.3-.67-.6-.66-.89,0-1.75.12-3.5.27-5.24a1,1,0,0,1,.7-.6c4.51,0,9,0,13.81,0-.15,2.11-.28,4.07-.45,6,0,.15-.46.44-.54.4s-.51-.42-.51-.63c0-.92.16-1.84.21-2.75C13.81,11.11,13.78,10.43,13.78,9.64Z"/></g></g></svg>