<svg xmlns="http://www.w3.org/2000/svg" viewBox="0 0 17.13 17.83" fill="#7d2000"><g id="Capa_2" data-name="Capa 2"><g id="Capa_1-2" data-name="Capa 1"><path d="M0,8.85c.79-.62,1.52-1.22,2.28-1.79S3.84,5.93,4.86,5.19L1.28,2.79C2.46,1.82,3.53.88,4.67,0c.18-.13.72.06,1,.25,1,.69,1.89,1.44,3,2.27L6.13,5.25l5.4,3.32,3-3.81,1.85.3-.78.87.9.84v.38c-2.17-.86-3.15.66-4.43,1.91a10.47,10.47,0,0,0,2.47,1.5,7.8,7.8,0,0,0,2.56-.19l.07.34-.92.68.89,1-.17.3-1.63-.57-1.16,1c.3-2.36-1.6-2.48-2.67-3.36L7.12,13.86c1.57,1.6,2.83,3.77,5.78,2.43-1.53,1.77-2.27,1.85-3.8.63-.47-.38-.93-.76-1.37-1.16s-.88-.82-1.46-1.37c-.59,1.37-3.09,1.18-2.61,3.44H1.43l-.8-1.22,5-2.41Zm1.67-.16C2.76,9.9,3.72,11.07,4.81,12.1c.43.4,1.43.81,1.72.6,1.36-1,2.57-2.21,4-3.52L5.61,6.09Zm1.23-6L5.48,4.42,7.23,2.85C5.16.69,5.06.68,2.9,2.68Z"/></g></g></svg>