<svg xmlns="http://www.w3.org/2000/svg" viewBox="0 0 18.73 18.26"><g id="Capa_2" data-name="Capa 2"><g id="Capa_1-2" data-name="Capa 1"><path d="M4.61.17c.1.92,1.87.91,1,2.48-.5.89.53,2.37,1.58,2.64.66.18,1.34.28,2.07.43-.09-1.22-1.92-2-.94-3.28A18.07,18.07,0,0,1,11.09,0c.26.39.51.74.73,1.1,2.1,3.48,1.82,2.63-.87,5.31,1.27.09,2.42.5,3.25.14,1.34-.58.57-1.84.07-2.87l.34-.09.94.83,1-.83.29.13-.47,1.36,1.16.34v.41l-1.79.11c-.8,1.65-2.07,2.49-4,1.14A7.81,7.81,0,0,0,15,11.9a3.92,3.92,0,0,1,1.72,2.29,3.52,3.52,0,0,0,1.5,2.45c.16.11.2.4.48,1l-1.73-1-.29,1.6-.36,0-.44-1.45-1-.16a2.55,2.55,0,0,1,.4-.79A1.78,1.78,0,0,0,15,12.78a5.72,5.72,0,0,0-1.17-.47l-4.74,4.4c-1.24-2-2.48-4-3.77-6.05a1.12,1.12,0,0,0-2.11.11,3.57,3.57,0,0,0-.12,3.56,5.48,5.48,0,0,1,.27.71L3,15.31,2,14l-.76.87L.91,14.8l.44-1.57L0,12.86l0-.32,1.72-.26a5.88,5.88,0,0,1,.78-1.83,3.92,3.92,0,0,1,2-1.25A8.12,8.12,0,0,0,9,6.58a4.4,4.4,0,0,0-.78-.19,3.86,3.86,0,0,1-3.69-3C4.42,3,3.89,2.68,3.51,2.34a8,8,0,0,0-.82-.58l.11-.35,1.25.13L4.24.29Z"/></g></g></svg>