<svg xmlns="http://www.w3.org/2000/svg" viewBox="0 0 12.79 18.17"><g id="Capa_2" data-name="Capa 2"><g id="Capa_1-2" data-name="Capa 1"><path d="M6.81,7.08c1.7,0,3.14,0,4.58,0,1.15,0,1.54.54,1.35,1.52-.61,3.18-1.29,6.36-2,9.58-2,0-3.66,0-5.36,0a1.26,1.26,0,0,1-.86-.65C3.14,14.71,1.76,11.92.38,9.13A9.58,9.58,0,0,1,0,8c1.74-.14,3.32-.25,4.9-.43a3.46,3.46,0,0,0,1-.44A3.32,3.32,0,0,0,5,6.52C3.67,6.11,2.6,5.44,2.49,3.94A3.48,3.48,0,0,1,4.34.64a3.72,3.72,0,0,1,4-.11C6.81,1.06,5.06,0,4,1.8l2.4-.4c1.56-.26,3,.37,3.37,1.5C10.21,4.29,9.56,5.58,8,6.36,7.64,6.54,7.31,6.78,6.81,7.08ZM4.22,14.27a26.55,26.55,0,0,0,.85,2.61,1.31,1.31,0,0,0,1,.68,33,33,0,0,0,3.44-.26A.72.72,0,0,0,10,17c.37-1.24.7-2.5,1-3.75l-.51.18c-.72-.66-1.92-1.21-2.08-2C8,9,10,8.67,11.8,8.23l-.18-.36-10,1a2,2,0,0,0,1.19.45,11.62,11.62,0,0,1,2.66.53,2,2,0,0,1,.34,3.54A14.9,14.9,0,0,1,4.22,14.27ZM6.47,1.58l-.11.19c-.37,0-.86-.08-1.07.12A6.77,6.77,0,0,0,3.52,4c-.14.29.58,1.33,1.08,1.48a6.69,6.69,0,0,0,3.05.21,1.83,1.83,0,0,0,.89-3A7.57,7.57,0,0,0,6.47,1.58Zm-2,9.84.39.06-1.2,2.17c1.74-.32,2.51-1.12,2.35-2.2S4.4,9.91,2.23,10.57l1.18.51L3.27,12Zm7.1-2c-1.43-.07-2.66.57-2.6,1.44.09,1.28,1.17,1.27,2.23,1.48-1.65-1.31-1.65-1.31-.7-2l.5.93.3-.06Z"/></g></g></svg>