<svg xmlns="http://www.w3.org/2000/svg" viewBox="0 0 13.48 18.16"><g id="Capa_2" data-name="Capa 2"><g id="Capa_1-2" data-name="Capa 1"><path d="M3.88,6.45c.81,0,1.17-.3,1-1.18-.35-1.38-.68-2.76-.9-4.16C3.88.78,4.27.37,4.46,0c.29.33.77.64.83,1,.26,1.63.41,3.27.77,4.92.21-1.45.38-2.91.66-4.34A4.24,4.24,0,0,1,7.47.4c.21.47.63,1,.58,1.4C7.94,3,7.61,4.14,7.39,5.32c-.06.35-.07.71-.11,1.06l.35.23a5.7,5.7,0,0,0,1.13-1.4,17.19,17.19,0,0,0,1-3.29c.2-1.12.72-1.23,1.77-.79C10.76,3,9.15,4.58,10,7.14a6.51,6.51,0,0,0,1-1.31,21.49,21.49,0,0,0,.62-2.39c.28-1.17.89-1.1,1.7-.49-.53,1.12-1,2.19-1.54,3.26a1.63,1.63,0,0,0,.35,2,5.64,5.64,0,0,1,.83,6,5.78,5.78,0,0,1-5.07,3.92,7.47,7.47,0,0,1-6-1.57C-.66,14.23-.66,10.46,2,7.72a1.87,1.87,0,0,0,.44-2.41C1.91,4.05,1.34,2.79.87,1.5A3.6,3.6,0,0,1,1,.18C1.4.44,2.08.6,2.21,1,2.83,2.72,3.31,4.54,3.88,6.45Zm3,.84c-4,0-5.88,1.86-5.7,5.51.14,2.93,2.35,4.59,6,4.48a5.62,5.62,0,0,0,5.52-5.43c0-2.88-1.91-4.52-5.38-4.55Z"/><path d="M7.29,16.18c-3,0-5-1.6-5.4-4.26A2.67,2.67,0,0,1,3.67,8.74c1.58-.56,3.17-1.25,4.93-.63a4.33,4.33,0,0,1,3.08,4.66A4.32,4.32,0,0,1,7.29,16.18Zm-.08-.63c2.2,0,3.59-1.25,3.65-3.09A3.32,3.32,0,0,0,7.64,8.87a5.35,5.35,0,0,0-4.42,1.84,2,2,0,0,0,0,3.06A5.85,5.85,0,0,0,7.21,15.55Z"/><path d="M7.24,9.8c1.93,0,2.62.56,2.64,2.16,0,1.8-.9,2.82-2.58,2.83-2,0-3.4-1-3.37-2.44S5.33,9.81,7.24,9.8Zm-.18.54c-1.6,0-2.37.62-2.37,1.83S5.56,14,7.1,14a2.09,2.09,0,0,0,2.24-2.09C9.33,10.8,8.63,10.32,7.06,10.34Z"/><path d="M7.91,12.19C7.35,12.6,7,13,6.69,13s-.71-.52-.7-.8.48-.65.8-.71S7.38,11.85,7.91,12.19Z"/></g></g></svg>