<?xml version="1.0" encoding="utf-8"?>
<!-- Generator: Adobe Illustrator 24.1.2, SVG Export Plug-In . SVG Version: 6.00 Build 0)  -->
<svg version="1.1" id="Capa_1" xmlns="http://www.w3.org/2000/svg" xmlns:xlink="http://www.w3.org/1999/xlink" x="0px" y="0px"
	 viewBox="0 0 18.7 18.5" style="enable-background:new 0 0 18.7 18.5;" xml:space="preserve" fill="#7d2000">
<g id="Capa_2_1_">
	<g id="Capa_1-2">
		<path d="M6.7,10.2C5.4,9.3,4.3,8.6,3.3,7.9s-1.1-1,0.2-1.7C4.6,5.6,5.7,5,7.1,4.3c-1.7-1.1-3.1-2-4.4-3C2.3,1.2,2.2,0.7,2,0.4
			C2.4,0.3,3-0.1,3.2,0C4.9,1.2,6.5,2.4,8,3.7c0.1,0.1-0.2,1.2-0.6,1.5C6.5,5.9,5.5,6.4,4.5,6.9l3.9,3.6l-4.5,3.1
			C5,14.5,6.1,15.3,7.1,16c0.3,0.2,0.6,0.3,0.8,0.5c0.2,0.4,0.3,0.8,0.4,1.2c-0.4,0-1,0.2-1.2,0c-1.3-0.9-2.4-2-3.6-3
			c-0.6-0.5-1.1-1.1-1.7-1.6L6.7,10.2z"/>
		<path d="M1.2,16.9c0.3-0.5,0.7-0.9,1-1.4C3,16,3.8,16.5,4.5,17c-0.6,0.5-1.3,1-2.1,1.4C2.3,18.5,1.7,17.6,1.2,16.9z"/>
		<path d="M9,13.4c-0.4,0.7-0.6,1.3-0.9,1.9l-2-1.7l2-2L9,13.4z"/>
		<path d="M4.8,3.5C3.7,4.9,2,5.5,1.8,5C1.6,4.1,1.6,3.2,1.7,2.4L4.8,3.5z"/>
		<path d="M1,10.4l1.1-1.8L4.1,10c-0.6,0.6-1.3,1.1-2,1.6C1.7,11.2,1.3,10.9,1,10.4z"/>
		<path d="M9.6,6.3C9,7.1,8.5,8,8.1,8C7.5,7.9,7,7.2,6.4,6.7c0.7-0.5,1.4-1,2.1-1.4C8.6,5.3,9.1,5.8,9.6,6.3z"/>
	</g>
</g>
<g id="Capa_2_2_">
	<g id="Capa_1-2_1_">
		<path d="M17.2,13.1c-0.5,0.5-1.1,1.1-1.7,1.6c-1.2,1-2.4,2.1-3.6,3c-0.2,0.2-0.8,0-1.2,0c0.1-0.4,0.2-0.8,0.4-1.2
			c0.2-0.2,0.5-0.3,0.8-0.5c1.1-0.8,2.1-1.6,3.2-2.4l-4.5-3.1l3.9-3.6c-1-0.5-1.9-1-2.8-1.7c-0.4-0.3-0.8-1.4-0.6-1.5
			c1.5-1.3,3.1-2.6,4.8-3.7C16-0.1,16.6,0.3,17,0.4c-0.2,0.3-0.3,0.7-0.6,0.9c-1.4,1-2.8,1.9-4.4,3c1.4,0.7,2.5,1.3,3.6,1.9
			c1.2,0.7,1.2,1,0.2,1.7s-2,1.4-3.3,2.3L17.2,13.1z"/>
		<path d="M16.6,18.5c-0.7-0.4-1.4-0.9-2.1-1.4c0.7-0.5,1.5-1,2.3-1.5c0.4,0.4,0.7,0.9,1.1,1.4C17.3,17.6,16.7,18.6,16.6,18.5z"/>
		<path d="M10.9,11.6l2,2l-2,1.7c-0.3-0.6-0.6-1.2-0.9-1.9L10.9,11.6z"/>
		<path d="M17.3,2.4c0.1,0.9,0.1,1.8-0.1,2.6c-0.3,0.6-2-0.1-3.1-1.5L17.3,2.4z"/>
		<path d="M16.9,11.6c-0.7-0.5-1.4-1-2-1.6l1.9-1.4l1.1,1.8C17.7,10.9,17.3,11.3,16.9,11.6z"/>
		<path d="M10.5,5.3c0.7,0.4,1.4,0.9,2.1,1.4C12,7.2,11.5,7.9,10.9,8C10.5,8,10,7.1,9.4,6.4C9.9,5.8,10.4,5.3,10.5,5.3z"/>
	</g>
</g>
</svg>
