<svg xmlns="http://www.w3.org/2000/svg" viewBox="0 0 15.56 17.72"><g id="Capa_2" data-name="Capa 2"><g id="Capa_1-2" data-name="Capa 1"><path d="M5.17,10.05C4,11.24,2.71,12.39,1.62,13.68c-.28.33-.05,1.13,0,1.71s.24,1.32.43,2.33c-.61-.23-1.09-.26-1.23-.49a4.31,4.31,0,0,1,.84-5.47C2.5,11,3.26,10.11,4,9.37c-1.19-1.5-2.44-3-3.59-4.58A2,2,0,0,1,.05,3.25,13,13,0,0,1,1.33.52C1.47.27,2,.21,2.27.07l.31.27c-.34.8-.64,1.63-1,2.4a1.48,1.48,0,0,0,.21,2C2.9,5.94,4,7.25,5.08,8.53l.35-.3C4.57,7,3.77,5.77,2.8,4.65A1.46,1.46,0,0,1,2.59,2.7c.37-.64.62-1.35,1-1.95.23-.32.7-.46,1.06-.69L5,.4,4.47,1.66c-.26.71-.94,1.66-.69,2.1A24.62,24.62,0,0,0,6.47,7.25L7,6.87a9.1,9.1,0,0,0-1.2-1.8,1.94,1.94,0,0,1-.33-2.61A16.22,16.22,0,0,1,6.32.73C6.49.48,6.9.37,7.2.2a4.38,4.38,0,0,1,.2.91,1.76,1.76,0,0,1-.27.64c-1,2.18-1,2.18.73,3.92C9.49,4,9.5,3.94,8.58,2.05a1,1,0,0,1-.16-.38c0-.48,0-1-.06-1.44.47.32,1.13.54,1.37,1,.81,1.53,1.15,3.08-.35,4.49a5.59,5.59,0,0,0-.74,1.43c2.42-1,3.43-3.36,2.55-5.31-.28-.62-1.06-1.44.5-1.83.49,1,1.06,2,1.46,3a1.74,1.74,0,0,1-.28,1.36c-.84,1.27-1.78,2.47-2.68,3.7l.31.27C11.76,6.94,13,5.54,14.24,4.09c.17-.2.06-.71-.05-1a12.72,12.72,0,0,1-.59-1.24c-.1-.5-.18-1.4,0-1.5.93-.46.71.55,1,1,2,2.52.37,4.27-1.25,6-.6.64-1.27,1.21-2.06,2,1.06,1,2.06,1.95,3,2.92s1.29,4,.43,5.08a.82.82,0,0,1-.71.21.77.77,0,0,1-.39-.59,2.33,2.33,0,0,1,.16-1.08c.71-1.66.1-2.8-1.28-3.77a22.21,22.21,0,0,1-2.1-1.91l-.29.24a6.55,6.55,0,0,0,.82,1,4.17,4.17,0,0,1,1.25,5.29c-.14.35-.56.59-.85.88-.12-.4-.47-.91-.34-1.18,1.17-2.35-.22-3.69-2.09-5.13.46,1.28,1.15,2.35,1.14,3.41s.18,2.58-1.42,3.14C8,16,10.27,13.93,7.84,12.56a2.1,2.1,0,0,0-1.07,2.75,7.63,7.63,0,0,1,0,2.38c-1.37-.19-.86-1.42-1.15-2.17a2.83,2.83,0,0,1,.74-3.15,4.32,4.32,0,0,0,.52-.79l-.42-.35c-.76.88-1.91,1.65-2.2,2.66s.26,2.34.46,3.63A3,3,0,0,1,3,13.84c.42-1.29,1.57-2.34,2.4-3.5Z"/></g></g></svg>