<svg xmlns="http://www.w3.org/2000/svg" viewBox="0 0 14.82 18.1" fill="#7d2000"><g id="Capa_2" data-name="Capa 2"><g id="Capa_1-2" data-name="Capa 1"><path d="M7.23,9.5C4.93,7,2.72,4.53.59,2.06A4.55,4.55,0,0,1,.05.38,6.57,6.57,0,0,1,1.64,0C4.9,0,8.16.14,11.42.22a5.51,5.51,0,0,1,.69-.06c.86.14,1.71.31,2.56.47a8.63,8.63,0,0,1-.74,2.77C12.75,5.09,11.33,6.61,10,8.2L8.61,9.84c1.81,1.88,3.61,3.71,5.35,5.6a7.07,7.07,0,0,1,.86,1.69,5,5,0,0,1-1.65.7Q7.25,18,1.31,18.1c-.45,0-1.22-.36-1.29-.68a2,2,0,0,1,.5-1.53c1.94-1.91,4-3.73,5.95-5.59C6.7,10.09,6.9,9.85,7.23,9.5Zm5.64-7.31C9.4,1.66,6.33,1,3.09,2.39l5.1,6.26Zm-1.16,14,.09-.47c-1.25-1.72-2.51-3.43-3.88-5.3L3,16.21l.25.4Z"/></g></g></svg>