<svg xmlns="http://www.w3.org/2000/svg" viewBox="0 0 14.26 18"><g id="Capa_2" data-name="Capa 2"><g id="Capa_1-2" data-name="Capa 1"><path d="M9.55,1.53c1.26.45,1.33,1.52,1.56,2.77A4.2,4.2,0,0,1,10.4,4c-.32-.2-.62-.42-.93-.63-.12.36-.23.72-.36,1.08-.34,1-.69,2-1.07,3,1.37.92,2.84.57,4.17-1.16a8.3,8.3,0,0,1,1-.94l.32.31-.89,1.37,1.43,1c-.64.06-1,.23-1.21.1a1.54,1.54,0,0,0-2.21.32,1.51,1.51,0,0,1-2.3.15,3.52,3.52,0,0,0-3.72-.48c-.73.3-1.43.6-1.42,1.62s.39,1.69,1.34,1.8a5.44,5.44,0,0,0,2.7-.18c1.5-.65,2.81-2,4.53-.5.14.12.58-.09.88-.15A4.68,4.68,0,0,1,14,10.63c-.41.59-1,1.07.24,1.78l-.58.09-1.08-.36-.77,1.44c-.35-1.09,0-2.45-1.22-2.38A12.77,12.77,0,0,0,7.3,12.38c1.19,1.07,1.81,2.1,1.21,3.35A3.76,3.76,0,0,1,5.26,18a12.1,12.1,0,0,1-3.4-.28A2.3,2.3,0,0,1,.05,15a2.39,2.39,0,0,1,2.21-2c1.31-.18,3.1.64,3.18,1.65a2,2,0,0,1-1.12,1.52c-.61.14-1.37-.32-2.07-.53l1.52-1c-.14-.1-.42-.47-.73-.5a1.5,1.5,0,0,0-1.2.38A1.58,1.58,0,0,0,1.79,16a2.76,2.76,0,0,0,3.38.84c.78-.25,1.41-1.16,1.93-1.89.12-.17-.34-1-.72-1.23a22.78,22.78,0,0,0-2.94-1.17c-1-.37-1.89-.72-1.84-2.06a3,3,0,0,1,1.83-3c1-.41,2-.67,3-1.07s1.73-.84,1.36-2A2.43,2.43,0,0,0,5.12,3.07a1.17,1.17,0,0,0-.94,1.66c.06.18.35.46.45.43a1.23,1.23,0,0,0,.54-.48c.18-.24.25-.66.47-.75a.83.83,0,0,1,.73.41c.1.34.08,1-.07,1.09A5,5,0,0,1,3.8,6a1.63,1.63,0,0,1-1-2.27,1.44,1.44,0,0,0-.6-2L.87,2.19.63,1.68,3.29.05l.29.33L3,1.33c.41.29.82.78,1.3.86s1-.94.54-1.31a3.5,3.5,0,0,0-1-.41L3.91.14H6.32c-.09.61-.45,1.52-.21,1.72C7,2.59,7.46,1.78,8,1.08L7,.19c.42-.09.7-.25.89-.17.74.29,1.93.15,1.67,1.54L7.8,2.1l.12.68c.42,0,1,.16,1.21,0S9.42,2,9.55,1.53Z"/></g></g></svg>