<svg xmlns="http://www.w3.org/2000/svg" viewBox="0 0 11.2 18.01"><g id="Capa_2" data-name="Capa 2"><g id="Capa_1-2" data-name="Capa 1"><path d="M6.11,18A3.8,3.8,0,0,1,6,17.13c.56-3.89-2.18-5.53-4.89-7.19L0,9.26A13.51,13.51,0,0,1,2.27,7C4.78,5.48,5.62,3.25,5.53.49c0-.15,0-.31.36-.49a25.68,25.68,0,0,0,.39,3.05,4.73,4.73,0,0,0,1,2c1.22,1.3,2.57,2.48,3.94,3.78-1.39,1.3-3.17,2.34-4,3.89S6.6,16.22,6.36,18Zm-.25-6.2L9.79,8.87,5.86,5.48,1.54,9Z"/><path d="M7.17,8.74a4.23,4.23,0,0,1-1.29.71c-.27.05-.62-.41-.94-.64.32-.33.59-.84,1-.93s.81.28,1.23.44Z"/></g></g></svg>