<svg xmlns="http://www.w3.org/2000/svg" viewBox="0 0 14.88 17.1" fill="#7d2000"><g id="Capa_2" data-name="Capa 2"><g id="Capa_1-2" data-name="Capa 1"><path d="M2.28,6.6C3.33,6.48,3.71,6,3.47,4.94S3.19,2.57,3,1.38C2.94.53,3.31.11,4.26,0,4.62,1.91,5,3.78,5.33,5.69l1.25.16c.1-1.59.25-3.1.3-4.62,0-.9.29-1.32,1.35-1,0,1.58.06,3.23,0,4.87-.05,1,.19,1.53,1.35,1.36.3-1.54.6-3.11.92-4.67.1-.48-.12-1.28.84-1s.78.77.61,1.49a45.11,45.11,0,0,0-.84,4.59c-.06.45.28,1,.44,1.43a10.12,10.12,0,0,0,1.12-.78c.55-.51,1-1.07,1.62-1.66.92,1.61.84,2.17-.48,2.7a4.84,4.84,0,0,0-2.68,3.14A30.87,30.87,0,0,1,9.9,14.77,4.18,4.18,0,0,1,2.54,15a14.61,14.61,0,0,1-1.4-4.55C.7,8,.46,5.54.14,3.08A4,4,0,0,1,0,1.72c.09-.35.51-.61.78-.91.2.26.51.5.57.78C1.72,3.26,2,4.93,2.28,6.6ZM2,9.52a32.46,32.46,0,0,0,1.08,4.07c.61,1.52,2,2.05,3.56,2.1s2.24-.95,2.68-2.12a31.75,31.75,0,0,0,1.14-4.09,1.11,1.11,0,0,0-.36-.94C8.27,7.41,6.44,6.28,4.08,7,2.83,7.44,1.79,7.85,2,9.52Z"/></g></g></svg>